<svg xmlns="http://www.w3.org/2000/svg" viewBox="0 0 8 8" shape-rendering="crispEdges">
  <rect x="0" y="0" width="2" height="2" fill="#000000"/>
  <rect x="2" y="0" width="2" height="2" fill="#f59e0b"/>
  <rect x="4" y="0" width="2" height="2" fill="#eab308"/>
  <rect x="6" y="0" width="2" height="2" fill="#22c55e"/>

  <rect x="0" y="2" width="2" height="2" fill="#06b6d4"/>
  <rect x="2" y="2" width="2" height="2" fill="#3b82f6"/>
  <rect x="4" y="2" width="2" height="2" fill="#a855f7"/>
  <rect x="6" y="2" width="2" height="2" fill="#ef4444"/>

  <rect x="0" y="4" width="2" height="2" fill="#f59e0b"/>
  <rect x="2" y="4" width="2" height="2" fill="#eab308"/>
  <rect x="4" y="4" width="2" height="2" fill="#22c55e"/>
  <rect x="6" y="4" width="2" height="2" fill="#06b6d4"/>

  <rect x="0" y="6" width="2" height="2" fill="#3b82f6"/>
  <rect x="2" y="6" width="2" height="2" fill="#a855f7"/>
  <rect x="4" y="6" width="2" height="2" fill="#ef4444"/>
  <rect x="6" y="6" width="2" height="2" fill="#ffffff"/>
</svg>